<svg xmlns="http://www.w3.org/2000/svg" viewBox="70 60 760 1140" width="760" height="1140" role="img" aria-label="霹雳火(强尼·斯通) 人物立绘(透明底)">
  <defs>
    <linearGradient id="fig" x1="0.2" y1="0" x2="0.8" y2="1">
      <stop offset="0%" stop-color="#ff7a2f" stop-opacity=".98"/>
      <stop offset="45%" stop-color="#ff7a2f" stop-opacity=".72"/>
      <stop offset="100%" stop-color="#4d1a05" stop-opacity=".98"/>
    </linearGradient>
    <filter id="soft2" x="-45%" y="-45%" width="190%" height="190%"><feGaussianBlur stdDeviation="12"/></filter>
    <filter id="drop" x="-30%" y="-30%" width="160%" height="160%">
      <feDropShadow dx="0" dy="16" stdDeviation="22" flood-color="#000" flood-opacity="0.5"/>
    </filter>
  </defs>
  <g filter="url(#drop)">
    
    <g><ellipse cx="450" cy="500" rx="134" ry="160" fill="url(#fig)"/>
  <rect x="396" y="640" width="108" height="90" fill="url(#fig)"/>
  <path d="M130 1200 C158 900 300 828 450 828 C600 828 742 900 770 1200 Z" fill="url(#fig)"/></g>
    <path d="M316 500 C316 412 374 340 450 340" fill="none" stroke="#ffffff" stroke-opacity=".38" stroke-width="8" filter="url(#soft2)"/>
  <path d="M584 500 C584 412 526 340 450 340" fill="none" stroke="#ff7a2f" stroke-opacity=".85" stroke-width="9" filter="url(#soft2)"/>
  <path d="M130 1200 C158 900 300 828 450 828" fill="none" stroke="#ffffff" stroke-opacity=".28" stroke-width="9" filter="url(#soft2)"/>
    <g opacity=".8">
      <path d="M640 700 C700 600 660 520 720 430 C742 520 812 560 780 690 C758 780 690 800 640 700 Z" fill="#ff7a2f" fill-opacity=".5"/>
      <path d="M676 686 C712 616 690 566 726 508 C740 566 786 592 766 676 C754 726 706 740 676 686 Z" fill="#ffd08a" fill-opacity=".7"/></g>
  </g>
</svg>