<svg xmlns="http://www.w3.org/2000/svg" viewBox="0 0 900 1200" width="900" height="1200" role="img" aria-label="纳摩 立绘背景">
  <defs>
    <linearGradient id="g1" x1="0" y1="0" x2="0.6" y2="1">
      <stop offset="0%" stop-color="#083b38"/><stop offset="55%" stop-color="#050d0a"/><stop offset="100%" stop-color="#020706"/>
    </linearGradient>
    <radialGradient id="glow" cx="50%" cy="42%" r="60%">
      <stop offset="0%" stop-color="#2fb3a8" stop-opacity=".30"/><stop offset="60%" stop-color="#2fb3a8" stop-opacity=".08"/>
      <stop offset="100%" stop-color="#2fb3a8" stop-opacity="0"/>
    </radialGradient>
    <linearGradient id="fig" x1="0.2" y1="0" x2="0.8" y2="1">
      <stop offset="0%" stop-color="#2fb3a8" stop-opacity=".95"/>
      <stop offset="45%" stop-color="#2fb3a8" stop-opacity=".62"/>
      <stop offset="100%" stop-color="#083b38" stop-opacity=".95"/>
    </linearGradient>
    <linearGradient id="fade" x1="0" y1="0" x2="0" y2="1">
      <stop offset="0%" stop-color="#020706" stop-opacity="0"/><stop offset="70%" stop-color="#020706" stop-opacity=".55"/>
      <stop offset="100%" stop-color="#020706" stop-opacity=".92"/>
    </linearGradient>
    <filter id="soft2" x="-45%" y="-45%" width="190%" height="190%"><feGaussianBlur stdDeviation="12"/></filter>
    <pattern id="hex" width="52" height="45" patternUnits="userSpaceOnUse">
      <path d="M26 0 L52 13 L52 32 L26 45 L0 32 L0 13 Z" fill="none" stroke="#2fb3a8" stroke-opacity=".085" stroke-width="1"/>
    </pattern>
  </defs>
  <rect width="900" height="1200" fill="url(#g1)"/>
  <rect width="900" height="1200" fill="url(#hex)"/>
  <rect width="900" height="1200" fill="url(#glow)"/>
  <text x="450" y="880" text-anchor="middle" font-family="Georgia, 'Times New Roman', serif" font-size="700"
        font-weight="700" fill="#ffffff" opacity="0.045">NA</text>
  
  <g><ellipse cx="450" cy="500" rx="134" ry="160" fill="url(#fig)"/>
  <rect x="396" y="640" width="108" height="90" fill="url(#fig)"/>
  <path d="M130 1200 C158 900 300 828 450 828 C600 828 742 900 770 1200 Z" fill="url(#fig)"/></g>
  <path d="M316 500 C316 412 374 340 450 340" fill="none" stroke="#ffffff" stroke-opacity=".38" stroke-width="8" filter="url(#soft2)"/>
  <path d="M584 500 C584 412 526 340 450 340" fill="none" stroke="#2fb3a8" stroke-opacity=".85" stroke-width="9" filter="url(#soft2)"/>
  <path d="M130 1200 C158 900 300 828 450 828" fill="none" stroke="#ffffff" stroke-opacity=".28" stroke-width="9" filter="url(#soft2)"/>
  <g stroke="#2fb3a8" stroke-width="10" fill="none" stroke-linecap="round" opacity=".8">
      <path d="M700 1180 L700 560"/><path d="M620 620 L620 470"/><path d="M780 620 L780 470"/>
      <path d="M620 620 C620 560 640 520 700 500 C760 520 780 560 780 620"/></g>
    <g stroke="#2fb3a8" stroke-opacity=".35" stroke-width="5" fill="none"><path d="M240 1120 C320 1000 300 900 220 830"/><path d="M300 1160 C400 1020 380 900 300 800"/></g>
  <rect width="900" height="1200" fill="url(#fade)"/>
</svg>