<svg xmlns="http://www.w3.org/2000/svg" viewBox="70 60 760 1140" width="760" height="1140" role="img" aria-label="神奇先生(里德·理查兹) 人物立绘(透明底)">
  <defs>
    <linearGradient id="fig" x1="0.2" y1="0" x2="0.8" y2="1">
      <stop offset="0%" stop-color="#4a86e8" stop-opacity=".98"/>
      <stop offset="45%" stop-color="#4a86e8" stop-opacity=".72"/>
      <stop offset="100%" stop-color="#141f4d" stop-opacity=".98"/>
    </linearGradient>
    <filter id="soft2" x="-45%" y="-45%" width="190%" height="190%"><feGaussianBlur stdDeviation="12"/></filter>
    <filter id="drop" x="-30%" y="-30%" width="160%" height="160%">
      <feDropShadow dx="0" dy="16" stdDeviation="22" flood-color="#000" flood-opacity="0.5"/>
    </filter>
  </defs>
  <g filter="url(#drop)">
    <g stroke="#4a86e8" stroke-width="16" fill="none" stroke-linecap="round" opacity=".6">
      <path d="M250 1080 C140 940 180 800 300 730"/><path d="M650 1080 C760 940 720 800 600 730"/></g>
    <circle cx="450" cy="470" r="150" fill="none" stroke="#4a86e8" stroke-opacity=".25" stroke-width="3" stroke-dasharray="14 12"/>
    <g><ellipse cx="450" cy="500" rx="134" ry="160" fill="url(#fig)"/>
  <rect x="396" y="640" width="108" height="90" fill="url(#fig)"/>
  <path d="M130 1200 C158 900 300 828 450 828 C600 828 742 900 770 1200 Z" fill="url(#fig)"/></g>
    <path d="M316 500 C316 412 374 340 450 340" fill="none" stroke="#ffffff" stroke-opacity=".38" stroke-width="8" filter="url(#soft2)"/>
  <path d="M584 500 C584 412 526 340 450 340" fill="none" stroke="#4a86e8" stroke-opacity=".85" stroke-width="9" filter="url(#soft2)"/>
  <path d="M130 1200 C158 900 300 828 450 828" fill="none" stroke="#ffffff" stroke-opacity=".28" stroke-width="9" filter="url(#soft2)"/>
    
  </g>
</svg>